<svg width="150" height="46" viewBox="0 0 150 46" fill="none" xmlns="http://www.w3.org/2000/svg">
<g clip-path="url(#clip0_619_49)">
<g clip-path="url(#clip1_619_49)">
<g clip-path="url(#clip2_619_49)">
<path d="M18.9475 29.6437H8.8675L19.165 15.3649C19.4963 14.8799 19.6488 14.4337 19.6488 13.8587V11.5112C19.6488 10.7324 19.215 10.2999 18.4363 10.2999H1.7225C0.945 10.2999 0.51 10.7337 0.51 11.5112V15.2624C0.51 16.0412 0.94375 16.4749 1.7225 16.4749H10.7825L0.485 30.7537C0.1525 31.2387 0 31.6849 0 32.2599V34.6074C0 35.3849 0.43375 35.8199 1.2125 35.8199H18.9475C19.7263 35.8199 20.16 35.3849 20.16 34.6074V30.8562C20.16 30.0787 19.7263 29.6449 18.9475 29.6449V29.6437Z" fill="white"/>
<path d="M35.3911 10.3C27.7761 10.3 22.5586 15.8687 22.5586 23.0587C22.5586 30.2487 27.6548 35.8187 35.5361 35.8187C40.4761 35.8187 44.4473 33.5425 46.2748 29.4637C46.6248 28.7375 46.1661 28.205 45.3298 28.205L41.4561 28.2412C40.8511 28.2412 40.4761 28.4837 40.0411 28.8825C39.0836 29.9237 37.4498 30.65 35.6223 30.65C32.5236 30.65 29.9098 29.0787 29.0598 25.6375H46.1786C46.8686 25.6375 47.3273 25.31 47.4136 24.5725C47.4498 24.0875 47.4861 23.6037 47.4861 23.0825C47.4861 15.94 42.5461 10.2987 35.3923 10.2987L35.3911 10.3ZM29.0336 20.7225C29.7761 17.69 32.0411 15.9037 35.3548 15.9037C37.9748 15.9037 40.5198 17.2612 41.2423 20.7225H29.0323H29.0336Z" fill="white"/>
<path d="M78.3103 -0.00631626C71.1766 -0.0313163 67.7303 2.99743 67.7303 9.55368V10.3062H59.9366V10.0549C59.9366 7.13368 61.4166 6.30993 63.9978 6.20993C64.8116 6.17243 65.2391 5.83368 65.2391 5.06868V1.23493C65.2391 0.482434 64.8128 -0.00631626 64.0478 -0.00631626C56.9153 -0.0313163 53.4678 3.49993 53.4678 10.0562V10.3074H51.0728C50.3091 10.3074 49.8828 10.7337 49.8828 11.4974V15.3337C49.8828 16.0987 50.3091 16.5249 51.0728 16.5249H53.4678V34.6287C53.4678 35.3924 53.8941 35.8199 54.6591 35.8199H58.7453C59.5103 35.8199 59.9366 35.3937 59.9366 34.6287V16.5237H67.7303V34.6274C67.7303 35.3912 68.1566 35.8187 68.9216 35.8187H73.0078C73.7716 35.8187 74.1991 35.3924 74.1991 34.6274V16.5237H78.3103C79.0741 16.5237 79.5016 16.0974 79.5016 15.3324V11.4962C79.5016 10.7312 79.0753 10.3062 78.3103 10.3062H74.1991V9.55368C74.1991 6.63368 75.6791 5.80993 78.2603 5.70868C79.0741 5.67118 79.5016 5.33243 79.5016 4.56743V1.23493C79.5016 0.482434 79.0753 -0.00631626 78.3103 -0.00631626Z" fill="white"/>
<path d="M100.852 10.2149H105.361C106.23 10.2149 106.665 10.7124 106.371 11.5811L95.0911 45.0099C94.8874 45.6861 94.3636 45.9811 93.6861 45.9811H89.1761C88.3086 45.9811 87.8736 45.4824 88.1674 44.6136L91.2849 35.4036L82.0749 11.6199C81.7686 10.7899 82.1524 10.2149 83.0324 10.2149H87.5286C88.2049 10.2149 88.6536 10.5349 88.8949 11.1724L94.5799 26.2961L99.4861 11.2224C99.6899 10.5461 100.176 10.2136 100.852 10.2136V10.2149Z" fill="white"/>
<path d="M140.528 21.2702H115.791C114.763 21.2702 113.93 20.4364 113.93 19.4089C113.93 18.3814 114.763 17.5477 115.791 17.5477H140.566C143.69 17.5477 146.328 14.9914 146.275 11.8689C146.223 8.83391 143.738 6.38141 140.692 6.38141C138.095 6.38141 135.906 8.16391 135.285 10.5714C135.076 11.3827 134.37 11.9652 133.532 11.9652H133.44C132.268 11.9652 131.377 10.8727 131.657 9.73516C132.658 5.67766 136.33 2.66016 140.692 2.66016C145.768 2.66016 149.91 6.74641 149.996 11.8039C150.085 17.0102 145.733 21.2714 140.527 21.2714L140.528 21.2702Z" fill="#05D4B7"/>
<path d="M132.812 35.85H115.791C114.763 35.85 113.93 35.0162 113.93 33.9887C113.93 32.9612 114.763 32.1275 115.791 32.1275H132.873C133.863 32.1275 134.73 31.3825 134.796 30.3937C134.868 29.31 134.007 28.405 132.938 28.405C132.255 28.405 131.657 28.775 131.333 29.325C130.995 29.9012 130.386 30.2662 129.717 30.2662C128.286 30.2662 127.386 28.715 128.103 27.4762C129.07 25.8075 130.875 24.6825 132.938 24.6825C135.985 24.6825 138.47 27.135 138.521 30.17C138.573 33.2925 135.935 35.8487 132.812 35.8487V35.85Z" fill="#05D4B7"/>
<path d="M120.442 13.9789H115.793C114.765 13.9789 113.932 13.1451 113.932 12.1176C113.932 11.0901 114.765 10.2564 115.793 10.2564H120.487C122.245 10.2564 123.762 8.90765 123.848 7.1514C123.94 5.2739 122.439 3.7164 120.582 3.7164C119.199 3.7164 118.014 4.5789 117.537 5.7939C117.255 6.51015 116.572 6.9864 115.802 6.9864C114.487 6.9864 113.59 5.66015 114.072 4.4364C115.09 1.8389 117.624 -0.00610352 120.58 -0.00610352C124.395 -0.00610352 127.507 3.06515 127.572 6.86515C127.638 10.7764 124.353 13.9789 120.442 13.9789Z" fill="#05D4B7"/>
<path d="M121.953 24.8376H115.793C114.765 24.8376 113.932 25.671 113.932 26.6989C113.932 27.7268 114.765 28.5601 115.793 28.5601H121.953C122.981 28.5601 123.814 27.7268 123.814 26.6989C123.814 25.671 122.981 24.8376 121.953 24.8376Z" fill="#05D4B7"/>
</g>
</g>
</g>
<defs>
<clipPath id="clip0_619_49">
<rect width="150" height="45.975" fill="white"/>
</clipPath>
<clipPath id="clip1_619_49">
<rect width="150" height="45.975" fill="white"/>
</clipPath>
<clipPath id="clip2_619_49">
<rect width="150" height="45.9875" fill="white" transform="translate(0 -0.00622559)"/>
</clipPath>
</defs>
</svg>
